<svg xmlns="http://www.w3.org/2000/svg" width="1500" height="900" viewBox="0 0 1500 900">
<defs><marker id="arrow" viewBox="0 0 10 10" refX="9" refY="5" markerWidth="5" markerHeight="5" orient="auto"><path d="M0 0 L10 5 L0 10z" fill="#63b3d1"/></marker></defs>
<rect width="100%" height="100%" fill="#08111f"/>
<text x="24" y="30" fill="#f8f9fa" font-family="monospace" font-size="20">level06 — Relay</text>
<text x="24" y="51" fill="#8ea7c4" font-family="monospace" font-size="12">long fork and reconvergence · player-perception view</text>
<line x1="110.7" y1="475.5" x2="162.4" y2="441.6" stroke="#536b80" stroke-width="1.3" marker-end="url(#arrow)"/>
<line x1="162.4" y1="441.6" x2="214.1" y2="411.1" stroke="#536b80" stroke-width="1.3" marker-end="url(#arrow)"/>
<line x1="214.1" y1="411.1" x2="265.9" y2="439.9" stroke="#536b80" stroke-width="1.3" marker-end="url(#arrow)"/>
<line x1="265.9" y1="439.9" x2="314.2" y2="470.4" stroke="#536b80" stroke-width="1.3" marker-end="url(#arrow)"/>
<line x1="314.2" y1="470.4" x2="365.9" y2="489.1" stroke="#536b80" stroke-width="1.3" marker-end="url(#arrow)"/>
<line x1="365.9" y1="489.1" x2="417.6" y2="455.2" stroke="#536b80" stroke-width="1.3" marker-end="url(#arrow)"/>
<line x1="417.6" y1="455.2" x2="469.4" y2="424.6" stroke="#536b80" stroke-width="1.3" marker-end="url(#arrow)"/>
<line x1="469.4" y1="424.6" x2="517.7" y2="453.5" stroke="#536b80" stroke-width="1.3" marker-end="url(#arrow)"/>
<line x1="517.7" y1="453.5" x2="569.4" y2="484.0" stroke="#536b80" stroke-width="1.3" marker-end="url(#arrow)"/>
<line x1="569.4" y1="484.0" x2="621.1" y2="475.5" stroke="#536b80" stroke-width="1.3" marker-end="url(#arrow)"/>
<line x1="621.1" y1="475.5" x2="672.8" y2="441.6" stroke="#536b80" stroke-width="1.3" marker-end="url(#arrow)"/>
<line x1="672.8" y1="441.6" x2="721.2" y2="411.1" stroke="#536b80" stroke-width="1.3" marker-end="url(#arrow)"/>
<line x1="721.2" y1="411.1" x2="772.9" y2="439.9" stroke="#536b80" stroke-width="1.3" marker-end="url(#arrow)"/>
<line x1="772.9" y1="439.9" x2="824.6" y2="470.4" stroke="#536b80" stroke-width="1.3" marker-end="url(#arrow)"/>
<line x1="824.6" y1="470.4" x2="876.3" y2="489.1" stroke="#536b80" stroke-width="1.3" marker-end="url(#arrow)"/>
<line x1="876.3" y1="489.1" x2="924.7" y2="455.2" stroke="#536b80" stroke-width="1.3" marker-end="url(#arrow)"/>
<line x1="924.7" y1="455.2" x2="976.4" y2="424.6" stroke="#536b80" stroke-width="1.3" marker-end="url(#arrow)"/>
<line x1="976.4" y1="424.6" x2="1028.1" y2="453.5" stroke="#536b80" stroke-width="1.3" marker-end="url(#arrow)"/>
<line x1="1028.1" y1="453.5" x2="1079.8" y2="484.0" stroke="#536b80" stroke-width="1.3" marker-end="url(#arrow)"/>
<line x1="1079.8" y1="484.0" x2="1128.2" y2="475.5" stroke="#536b80" stroke-width="1.3" marker-end="url(#arrow)"/>
<line x1="1128.2" y1="475.5" x2="1179.9" y2="441.6" stroke="#536b80" stroke-width="1.3" marker-end="url(#arrow)"/>
<line x1="1179.9" y1="441.6" x2="1231.6" y2="411.1" stroke="#536b80" stroke-width="1.3" marker-end="url(#arrow)"/>
<line x1="1231.6" y1="411.1" x2="1283.3" y2="439.9" stroke="#536b80" stroke-width="1.3" marker-end="url(#arrow)"/>
<line x1="1283.3" y1="439.9" x2="1331.6" y2="470.4" stroke="#536b80" stroke-width="1.3" marker-end="url(#arrow)"/>
<line x1="1331.6" y1="470.4" x2="1383.4" y2="489.1" stroke="#536b80" stroke-width="1.3" marker-end="url(#arrow)"/>
<line x1="214.1" y1="411.1" x2="264.2" y2="427.2" stroke="#536b80" stroke-width="1.3" marker-end="url(#arrow)"/>
<line x1="264.2" y1="427.2" x2="314.2" y2="470.4" stroke="#536b80" stroke-width="1.3" marker-end="url(#arrow)"/>
<line x1="265.9" y1="439.9" x2="290.1" y2="481.5" stroke="#536b80" stroke-width="1.3" marker-end="url(#arrow)"/>
<line x1="290.1" y1="481.5" x2="314.2" y2="470.4" stroke="#536b80" stroke-width="1.3" marker-end="url(#arrow)"/>
<line x1="365.9" y1="489.1" x2="384.1" y2="462.0" stroke="#536b80" stroke-width="1.3" marker-end="url(#arrow)"/>
<line x1="384.1" y1="462.0" x2="417.6" y2="455.2" stroke="#536b80" stroke-width="1.3" marker-end="url(#arrow)"/>
<line x1="417.6" y1="455.2" x2="424.1" y2="439.9" stroke="#536b80" stroke-width="1.3" marker-end="url(#arrow)"/>
<line x1="424.1" y1="439.9" x2="469.4" y2="424.6" stroke="#536b80" stroke-width="1.3" marker-end="url(#arrow)"/>
<line x1="517.7" y1="453.5" x2="514.6" y2="487.4" stroke="#536b80" stroke-width="1.3" marker-end="url(#arrow)"/>
<line x1="514.6" y1="487.4" x2="569.4" y2="484.0" stroke="#536b80" stroke-width="1.3" marker-end="url(#arrow)"/>
<line x1="621.1" y1="475.5" x2="626.5" y2="434.0" stroke="#536b80" stroke-width="1.3" marker-end="url(#arrow)"/>
<line x1="626.5" y1="434.0" x2="672.8" y2="441.6" stroke="#536b80" stroke-width="1.3" marker-end="url(#arrow)"/>
<line x1="672.8" y1="441.6" x2="697.1" y2="455.2" stroke="#536b80" stroke-width="1.3" marker-end="url(#arrow)"/>
<line x1="697.1" y1="455.2" x2="721.2" y2="411.1" stroke="#536b80" stroke-width="1.3" marker-end="url(#arrow)"/>
<line x1="772.9" y1="439.9" x2="789.9" y2="464.5" stroke="#536b80" stroke-width="1.3" marker-end="url(#arrow)"/>
<line x1="789.9" y1="464.5" x2="876.3" y2="489.1" stroke="#536b80" stroke-width="1.3" marker-end="url(#arrow)"/>
<line x1="824.6" y1="470.4" x2="850.4" y2="453.5" stroke="#536b80" stroke-width="1.3" marker-end="url(#arrow)"/>
<line x1="850.4" y1="453.5" x2="876.3" y2="489.1" stroke="#536b80" stroke-width="1.3" marker-end="url(#arrow)"/>
<line x1="924.7" y1="455.2" x2="958.2" y2="456.0" stroke="#536b80" stroke-width="1.3" marker-end="url(#arrow)"/>
<line x1="958.2" y1="456.0" x2="976.4" y2="424.6" stroke="#536b80" stroke-width="1.3" marker-end="url(#arrow)"/>
<line x1="1028.1" y1="453.5" x2="1073.6" y2="468.7" stroke="#536b80" stroke-width="1.3" marker-end="url(#arrow)"/>
<line x1="1073.6" y1="468.7" x2="1079.8" y2="484.0" stroke="#536b80" stroke-width="1.3" marker-end="url(#arrow)"/>
<line x1="1079.8" y1="484.0" x2="1122.7" y2="505.2" stroke="#536b80" stroke-width="1.3" marker-end="url(#arrow)"/>
<line x1="1122.7" y1="505.2" x2="1128.2" y2="475.5" stroke="#536b80" stroke-width="1.3" marker-end="url(#arrow)"/>
<line x1="1179.9" y1="441.6" x2="1205.8" y2="397.5" stroke="#536b80" stroke-width="1.3" marker-end="url(#arrow)"/>
<line x1="1205.8" y1="397.5" x2="1231.6" y2="411.1" stroke="#536b80" stroke-width="1.3" marker-end="url(#arrow)"/>
<line x1="1231.6" y1="411.1" x2="1277.7" y2="450.1" stroke="#536b80" stroke-width="1.3" marker-end="url(#arrow)"/>
<line x1="1277.7" y1="450.1" x2="1283.3" y2="439.9" stroke="#536b80" stroke-width="1.3" marker-end="url(#arrow)"/>
<line x1="214.1" y1="411.1" x2="298.9" y2="440.8" stroke="#536b80" stroke-width="1.3" marker-end="url(#arrow)"/>
<line x1="298.9" y1="440.8" x2="314.2" y2="470.4" stroke="#536b80" stroke-width="1.3" marker-end="url(#arrow)"/>
<line x1="265.9" y1="439.9" x2="266.4" y2="472.1" stroke="#536b80" stroke-width="1.3" marker-end="url(#arrow)"/>
<line x1="266.4" y1="472.1" x2="314.2" y2="470.4" stroke="#536b80" stroke-width="1.3" marker-end="url(#arrow)"/>
<rect x="95.4" y="475.5" width="30.5" height="4.1" rx="2" fill="#80ed99" stroke="#80ed99"/>
<rect x="146.3" y="441.6" width="32.2" height="4.1" rx="2" fill="#66a6c9" stroke="#66a6c9"/>
<rect x="197.2" y="411.1" width="33.9" height="4.1" rx="2" fill="#66a6c9" stroke="#66a6c9"/>
<rect x="248.1" y="439.9" width="35.6" height="4.1" rx="2" fill="#66a6c9" stroke="#66a6c9"/>
<rect x="298.9" y="470.4" width="30.5" height="4.1" rx="2" fill="#66a6c9" stroke="#66a6c9"/>
<rect x="349.8" y="489.1" width="32.2" height="4.1" rx="2" fill="#66a6c9" stroke="#66a6c9"/>
<rect x="400.7" y="455.2" width="33.9" height="4.1" rx="2" fill="#66a6c9" stroke="#66a6c9"/>
<rect x="451.5" y="424.6" width="35.6" height="4.1" rx="2" fill="#66a6c9" stroke="#66a6c9"/>
<rect x="502.4" y="453.5" width="30.5" height="4.1" rx="2" fill="#66a6c9" stroke="#ffffff"/>
<rect x="553.3" y="484.0" width="32.2" height="4.1" rx="2" fill="#66a6c9" stroke="#66a6c9"/>
<rect x="604.2" y="475.5" width="33.9" height="4.1" rx="2" fill="#66a6c9" stroke="#66a6c9"/>
<rect x="655.0" y="441.6" width="35.6" height="4.1" rx="2" fill="#66a6c9" stroke="#66a6c9"/>
<rect x="705.9" y="411.1" width="30.5" height="4.1" rx="2" fill="#66a6c9" stroke="#66a6c9"/>
<rect x="756.8" y="439.9" width="32.2" height="4.1" rx="2" fill="#66a6c9" stroke="#66a6c9"/>
<rect x="807.7" y="470.4" width="33.9" height="4.1" rx="2" fill="#66a6c9" stroke="#66a6c9"/>
<rect x="858.5" y="489.1" width="35.6" height="4.1" rx="2" fill="#66a6c9" stroke="#66a6c9"/>
<rect x="909.4" y="455.2" width="30.5" height="4.1" rx="2" fill="#66a6c9" stroke="#66a6c9"/>
<rect x="960.3" y="424.6" width="32.2" height="4.1" rx="2" fill="#66a6c9" stroke="#ffffff"/>
<rect x="1011.1" y="453.5" width="33.9" height="4.1" rx="2" fill="#66a6c9" stroke="#66a6c9"/>
<rect x="1062.0" y="484.0" width="35.6" height="4.1" rx="2" fill="#66a6c9" stroke="#66a6c9"/>
<rect x="1112.9" y="475.5" width="30.5" height="4.1" rx="2" fill="#66a6c9" stroke="#66a6c9"/>
<rect x="1163.8" y="441.6" width="32.2" height="4.1" rx="2" fill="#66a6c9" stroke="#66a6c9"/>
<rect x="1214.6" y="411.1" width="33.9" height="4.1" rx="2" fill="#66a6c9" stroke="#66a6c9"/>
<rect x="1265.5" y="439.9" width="35.6" height="4.1" rx="2" fill="#66a6c9" stroke="#66a6c9"/>
<rect x="1316.4" y="470.4" width="30.5" height="4.1" rx="2" fill="#66a6c9" stroke="#66a6c9"/>
<rect x="1367.3" y="489.1" width="32.2" height="4.1" rx="2" fill="#ffe66d" stroke="#ffe66d"/>
<rect x="254.7" y="427.2" width="19.0" height="4.1" rx="2" fill="#66a6c9" stroke="#66a6c9"/>
<rect x="280.6" y="481.5" width="19.0" height="4.1" rx="2" fill="#66a6c9" stroke="#66a6c9"/>
<rect x="374.6" y="462.0" width="19.0" height="4.1" rx="2" fill="#66a6c9" stroke="#66a6c9"/>
<rect x="414.6" y="439.9" width="19.0" height="4.1" rx="2" fill="#66a6c9" stroke="#66a6c9"/>
<rect x="505.1" y="487.4" width="19.0" height="4.1" rx="2" fill="#66a6c9" stroke="#66a6c9"/>
<rect x="617.1" y="434.0" width="19.0" height="4.1" rx="2" fill="#66a6c9" stroke="#66a6c9"/>
<rect x="687.6" y="455.2" width="19.0" height="4.1" rx="2" fill="#66a6c9" stroke="#66a6c9"/>
<rect x="780.4" y="464.5" width="19.0" height="4.1" rx="2" fill="#66a6c9" stroke="#66a6c9"/>
<rect x="840.9" y="453.5" width="19.0" height="4.1" rx="2" fill="#66a6c9" stroke="#66a6c9"/>
<rect x="948.7" y="456.0" width="19.0" height="4.1" rx="2" fill="#66a6c9" stroke="#66a6c9"/>
<rect x="1064.1" y="468.7" width="19.0" height="4.1" rx="2" fill="#66a6c9" stroke="#66a6c9"/>
<rect x="1113.2" y="505.2" width="19.0" height="4.1" rx="2" fill="#66a6c9" stroke="#66a6c9"/>
<rect x="1196.3" y="397.5" width="19.0" height="4.1" rx="2" fill="#66a6c9" stroke="#66a6c9"/>
<rect x="1268.2" y="450.1" width="19.0" height="4.1" rx="2" fill="#66a6c9" stroke="#66a6c9"/>
<rect x="289.4" y="440.8" width="19.0" height="4.1" rx="2" fill="#66a6c9" stroke="#66a6c9"/>
<rect x="256.9" y="472.1" width="19.0" height="4.1" rx="2" fill="#66a6c9" stroke="#66a6c9"/>
</svg>
